<mxfile host="app.diagrams.net" agent="Mozilla/5.0 (Windows NT 10.0; Win64; x64) AppleWebKit/537.36 (KHTML, like Gecko) Chrome/132.0.0.0 Safari/537.36" version="26.0.6">
  <diagram name="Page-1" id="2Uh7pbkBLhx4UwhNAcnb">
    <mxGraphModel dx="1400" dy="795" grid="1" gridSize="10" guides="1" tooltips="1" connect="1" arrows="1" fold="1" page="1" pageScale="1" pageWidth="850" pageHeight="1100" math="0" shadow="0">
      <root>
        <mxCell id="0" />
        <mxCell id="1" parent="0" />
        <mxCell id="qtIyxxtRcWGqX30iMX2W-1" value="" style="shape=partialRectangle;whiteSpace=wrap;html=1;top=0;bottom=0;fillColor=none;rotation=90;" vertex="1" parent="1">
          <mxGeometry x="120" y="-20" width="50" height="190" as="geometry" />
        </mxCell>
        <mxCell id="qtIyxxtRcWGqX30iMX2W-2" value="" style="shape=partialRectangle;whiteSpace=wrap;html=1;top=0;bottom=0;fillColor=none;rotation=90;" vertex="1" parent="1">
          <mxGeometry x="660" y="-20" width="50" height="190" as="geometry" />
        </mxCell>
        <mxCell id="qtIyxxtRcWGqX30iMX2W-3" value="" style="shape=partialRectangle;whiteSpace=wrap;html=1;top=0;bottom=0;fillColor=none;rotation=90;" vertex="1" parent="1">
          <mxGeometry x="400" y="-30" width="50" height="210" as="geometry" />
        </mxCell>
        <mxCell id="qtIyxxtRcWGqX30iMX2W-4" value="&lt;font style=&quot;font-size: 14px;&quot; face=&quot;Times New Roman&quot;&gt;&lt;b&gt;User Management&lt;/b&gt;&lt;/font&gt;" style="ellipse;whiteSpace=wrap;html=1;" vertex="1" parent="1">
          <mxGeometry x="70" y="180" width="190" height="100" as="geometry" />
        </mxCell>
        <mxCell id="qtIyxxtRcWGqX30iMX2W-5" value="&lt;b style=&quot;font-family: &amp;quot;Times New Roman&amp;quot;; font-size: 14px;&quot;&gt;Service Listing&lt;/b&gt;" style="ellipse;whiteSpace=wrap;html=1;" vertex="1" parent="1">
          <mxGeometry x="530" y="180" width="190" height="100" as="geometry" />
        </mxCell>
        <mxCell id="qtIyxxtRcWGqX30iMX2W-58" style="edgeStyle=orthogonalEdgeStyle;rounded=0;orthogonalLoop=1;jettySize=auto;html=1;entryX=0;entryY=0.5;entryDx=0;entryDy=0;" edge="1" parent="1" source="qtIyxxtRcWGqX30iMX2W-6" target="qtIyxxtRcWGqX30iMX2W-12">
          <mxGeometry relative="1" as="geometry" />
        </mxCell>
        <mxCell id="qtIyxxtRcWGqX30iMX2W-6" value="&lt;b style=&quot;font-family: &amp;quot;Times New Roman&amp;quot;; font-size: 14px;&quot;&gt;Service Booking &amp;amp; Payment&lt;/b&gt;" style="ellipse;whiteSpace=wrap;html=1;" vertex="1" parent="1">
          <mxGeometry x="70" y="470" width="190" height="100" as="geometry" />
        </mxCell>
        <mxCell id="qtIyxxtRcWGqX30iMX2W-56" style="edgeStyle=orthogonalEdgeStyle;rounded=0;orthogonalLoop=1;jettySize=auto;html=1;entryX=0;entryY=0.5;entryDx=0;entryDy=0;" edge="1" parent="1" source="qtIyxxtRcWGqX30iMX2W-7" target="qtIyxxtRcWGqX30iMX2W-3">
          <mxGeometry relative="1" as="geometry">
            <Array as="points">
              <mxPoint x="820" y="560" />
              <mxPoint x="820" y="30" />
              <mxPoint x="425" y="30" />
            </Array>
          </mxGeometry>
        </mxCell>
        <mxCell id="qtIyxxtRcWGqX30iMX2W-57" style="edgeStyle=orthogonalEdgeStyle;rounded=0;orthogonalLoop=1;jettySize=auto;html=1;entryX=0;entryY=0.75;entryDx=0;entryDy=0;" edge="1" parent="1" source="qtIyxxtRcWGqX30iMX2W-7" target="qtIyxxtRcWGqX30iMX2W-1">
          <mxGeometry relative="1" as="geometry">
            <Array as="points">
              <mxPoint x="625" y="760" />
              <mxPoint x="20" y="760" />
              <mxPoint x="20" y="30" />
              <mxPoint x="97" y="30" />
            </Array>
          </mxGeometry>
        </mxCell>
        <mxCell id="qtIyxxtRcWGqX30iMX2W-7" value="&lt;b style=&quot;font-family: &amp;quot;Times New Roman&amp;quot;; font-size: 14px;&quot;&gt;Admin Management&lt;/b&gt;" style="ellipse;whiteSpace=wrap;html=1;" vertex="1" parent="1">
          <mxGeometry x="530" y="470" width="190" height="100" as="geometry" />
        </mxCell>
        <mxCell id="qtIyxxtRcWGqX30iMX2W-43" style="edgeStyle=orthogonalEdgeStyle;rounded=0;orthogonalLoop=1;jettySize=auto;html=1;exitX=0;exitY=0.5;exitDx=0;exitDy=0;entryX=0;entryY=0.5;entryDx=0;entryDy=0;" edge="1" parent="1" source="qtIyxxtRcWGqX30iMX2W-8" target="qtIyxxtRcWGqX30iMX2W-10">
          <mxGeometry relative="1" as="geometry" />
        </mxCell>
        <mxCell id="qtIyxxtRcWGqX30iMX2W-51" style="edgeStyle=orthogonalEdgeStyle;rounded=0;orthogonalLoop=1;jettySize=auto;html=1;exitX=0.5;exitY=1;exitDx=0;exitDy=0;entryX=0;entryY=0.5;entryDx=0;entryDy=0;" edge="1" parent="1" source="qtIyxxtRcWGqX30iMX2W-8" target="qtIyxxtRcWGqX30iMX2W-9">
          <mxGeometry relative="1" as="geometry" />
        </mxCell>
        <mxCell id="qtIyxxtRcWGqX30iMX2W-8" value="&lt;font face=&quot;Times New Roman&quot;&gt;&lt;span style=&quot;font-size: 14px;&quot;&gt;&lt;b&gt;Review &amp;amp; Rating&lt;/b&gt;&lt;/span&gt;&lt;/font&gt;" style="ellipse;whiteSpace=wrap;html=1;" vertex="1" parent="1">
          <mxGeometry x="325" y="550" width="190" height="100" as="geometry" />
        </mxCell>
        <mxCell id="qtIyxxtRcWGqX30iMX2W-9" value="" style="shape=partialRectangle;whiteSpace=wrap;html=1;top=0;bottom=0;fillColor=none;rotation=90;" vertex="1" parent="1">
          <mxGeometry x="395" y="620" width="50" height="190" as="geometry" />
        </mxCell>
        <mxCell id="qtIyxxtRcWGqX30iMX2W-10" value="&lt;font face=&quot;Times New Roman&quot;&gt;&lt;span style=&quot;font-size: 14px;&quot;&gt;&lt;b&gt;Clients&lt;/b&gt;&lt;/span&gt;&lt;/font&gt;" style="rounded=0;whiteSpace=wrap;html=1;" vertex="1" parent="1">
          <mxGeometry x="85" y="320" width="205" height="40" as="geometry" />
        </mxCell>
        <mxCell id="qtIyxxtRcWGqX30iMX2W-11" value="&lt;b style=&quot;font-family: &amp;quot;Times New Roman&amp;quot;; font-size: 14px;&quot;&gt;Payment Gateway&lt;/b&gt;" style="rounded=0;whiteSpace=wrap;html=1;" vertex="1" parent="1">
          <mxGeometry x="85" y="390" width="205" height="40" as="geometry" />
        </mxCell>
        <mxCell id="qtIyxxtRcWGqX30iMX2W-12" value="&lt;b style=&quot;font-family: &amp;quot;Times New Roman&amp;quot;; font-size: 14px;&quot;&gt;Service Providers&lt;/b&gt;" style="rounded=0;whiteSpace=wrap;html=1;" vertex="1" parent="1">
          <mxGeometry x="490" y="320" width="205" height="40" as="geometry" />
        </mxCell>
        <mxCell id="qtIyxxtRcWGqX30iMX2W-13" value="&lt;b style=&quot;font-family: &amp;quot;Times New Roman&amp;quot;; font-size: 14px;&quot;&gt;Django Admin&lt;/b&gt;" style="rounded=0;whiteSpace=wrap;html=1;" vertex="1" parent="1">
          <mxGeometry x="490" y="390" width="205" height="40" as="geometry" />
        </mxCell>
        <mxCell id="qtIyxxtRcWGqX30iMX2W-14" value="&lt;font style=&quot;font-size: 14px;&quot; face=&quot;Times New Roman&quot;&gt;&lt;b&gt;User Database&lt;/b&gt;&lt;/font&gt;" style="text;html=1;align=center;verticalAlign=middle;whiteSpace=wrap;rounded=0;" vertex="1" parent="1">
          <mxGeometry x="80" y="60" width="130" height="30" as="geometry" />
        </mxCell>
        <mxCell id="qtIyxxtRcWGqX30iMX2W-15" value="&lt;b style=&quot;forced-color-adjust: none; color: rgb(0, 0, 0); font-family: &amp;quot;Times New Roman&amp;quot;; font-size: 14px; font-style: normal; font-variant-ligatures: normal; font-variant-caps: normal; letter-spacing: normal; orphans: 2; text-align: center; text-indent: 0px; text-transform: none; widows: 2; word-spacing: 0px; -webkit-text-stroke-width: 0px; white-space: normal; background-color: rgb(251, 251, 251); text-decoration-thickness: initial; text-decoration-style: initial; text-decoration-color: initial;&quot;&gt;Booking &amp;amp; Transaction Database&lt;/b&gt;" style="text;whiteSpace=wrap;html=1;" vertex="1" parent="1">
          <mxGeometry x="325" y="60" width="205" height="40" as="geometry" />
        </mxCell>
        <mxCell id="qtIyxxtRcWGqX30iMX2W-16" value="&lt;div style=&quot;text-align: center;&quot;&gt;&lt;span style=&quot;background-color: transparent; color: light-dark(rgb(0, 0, 0), rgb(255, 255, 255)); font-size: 14px;&quot;&gt;&lt;font face=&quot;Times New Roman&quot;&gt;&lt;b&gt;Service Database&lt;/b&gt;&lt;/font&gt;&lt;/span&gt;&lt;/div&gt;" style="text;whiteSpace=wrap;html=1;" vertex="1" parent="1">
          <mxGeometry x="630" y="60" width="120" height="40" as="geometry" />
        </mxCell>
        <mxCell id="qtIyxxtRcWGqX30iMX2W-17" value="&lt;b style=&quot;forced-color-adjust: none; color: rgb(0, 0, 0); font-family: &amp;quot;Times New Roman&amp;quot;; font-size: 14px; font-style: normal; font-variant-ligatures: normal; font-variant-caps: normal; letter-spacing: normal; orphans: 2; text-align: center; text-indent: 0px; text-transform: none; widows: 2; word-spacing: 0px; -webkit-text-stroke-width: 0px; white-space: normal; background-color: rgb(251, 251, 251); text-decoration-thickness: initial; text-decoration-style: initial; text-decoration-color: initial;&quot;&gt;Review &amp;amp; Rating Database&lt;/b&gt;" style="text;whiteSpace=wrap;html=1;" vertex="1" parent="1">
          <mxGeometry x="332.5" y="700" width="175" height="40" as="geometry" />
        </mxCell>
        <mxCell id="qtIyxxtRcWGqX30iMX2W-20" style="edgeStyle=orthogonalEdgeStyle;rounded=0;orthogonalLoop=1;jettySize=auto;html=1;entryX=0.392;entryY=-0.004;entryDx=0;entryDy=0;entryPerimeter=0;" edge="1" parent="1" source="qtIyxxtRcWGqX30iMX2W-1" target="qtIyxxtRcWGqX30iMX2W-4">
          <mxGeometry relative="1" as="geometry" />
        </mxCell>
        <mxCell id="qtIyxxtRcWGqX30iMX2W-24" style="edgeStyle=orthogonalEdgeStyle;rounded=0;orthogonalLoop=1;jettySize=auto;html=1;entryX=0.944;entryY=0.398;entryDx=0;entryDy=0;entryPerimeter=0;" edge="1" parent="1" source="qtIyxxtRcWGqX30iMX2W-4" target="qtIyxxtRcWGqX30iMX2W-1">
          <mxGeometry relative="1" as="geometry" />
        </mxCell>
        <mxCell id="qtIyxxtRcWGqX30iMX2W-25" style="edgeStyle=orthogonalEdgeStyle;rounded=0;orthogonalLoop=1;jettySize=auto;html=1;exitX=1;exitY=0.75;exitDx=0;exitDy=0;entryX=0.568;entryY=-0.02;entryDx=0;entryDy=0;entryPerimeter=0;" edge="1" parent="1" source="qtIyxxtRcWGqX30iMX2W-2" target="qtIyxxtRcWGqX30iMX2W-5">
          <mxGeometry relative="1" as="geometry" />
        </mxCell>
        <mxCell id="qtIyxxtRcWGqX30iMX2W-28" style="edgeStyle=orthogonalEdgeStyle;rounded=0;orthogonalLoop=1;jettySize=auto;html=1;entryX=1.008;entryY=0.364;entryDx=0;entryDy=0;entryPerimeter=0;" edge="1" parent="1" source="qtIyxxtRcWGqX30iMX2W-5" target="qtIyxxtRcWGqX30iMX2W-2">
          <mxGeometry relative="1" as="geometry">
            <Array as="points">
              <mxPoint x="711" y="160" />
              <mxPoint x="711" y="160" />
            </Array>
          </mxGeometry>
        </mxCell>
        <mxCell id="qtIyxxtRcWGqX30iMX2W-29" style="edgeStyle=orthogonalEdgeStyle;rounded=0;orthogonalLoop=1;jettySize=auto;html=1;entryX=0.333;entryY=0.956;entryDx=0;entryDy=0;entryPerimeter=0;" edge="1" parent="1" source="qtIyxxtRcWGqX30iMX2W-12" target="qtIyxxtRcWGqX30iMX2W-5">
          <mxGeometry relative="1" as="geometry" />
        </mxCell>
        <mxCell id="qtIyxxtRcWGqX30iMX2W-32" style="edgeStyle=orthogonalEdgeStyle;rounded=0;orthogonalLoop=1;jettySize=auto;html=1;exitX=0.25;exitY=0;exitDx=0;exitDy=0;entryX=0.347;entryY=1;entryDx=0;entryDy=0;entryPerimeter=0;" edge="1" parent="1" source="qtIyxxtRcWGqX30iMX2W-10" target="qtIyxxtRcWGqX30iMX2W-4">
          <mxGeometry relative="1" as="geometry" />
        </mxCell>
        <mxCell id="qtIyxxtRcWGqX30iMX2W-34" style="edgeStyle=orthogonalEdgeStyle;rounded=0;orthogonalLoop=1;jettySize=auto;html=1;entryX=0.623;entryY=0.04;entryDx=0;entryDy=0;entryPerimeter=0;" edge="1" parent="1" source="qtIyxxtRcWGqX30iMX2W-11" target="qtIyxxtRcWGqX30iMX2W-6">
          <mxGeometry relative="1" as="geometry" />
        </mxCell>
        <mxCell id="qtIyxxtRcWGqX30iMX2W-36" style="edgeStyle=orthogonalEdgeStyle;rounded=0;orthogonalLoop=1;jettySize=auto;html=1;entryX=0.387;entryY=0.92;entryDx=0;entryDy=0;entryPerimeter=0;" edge="1" parent="1" source="qtIyxxtRcWGqX30iMX2W-6" target="qtIyxxtRcWGqX30iMX2W-11">
          <mxGeometry relative="1" as="geometry" />
        </mxCell>
        <mxCell id="qtIyxxtRcWGqX30iMX2W-39" style="edgeStyle=orthogonalEdgeStyle;rounded=0;orthogonalLoop=1;jettySize=auto;html=1;entryX=0.663;entryY=1.08;entryDx=0;entryDy=0;entryPerimeter=0;" edge="1" parent="1" source="qtIyxxtRcWGqX30iMX2W-7" target="qtIyxxtRcWGqX30iMX2W-13">
          <mxGeometry relative="1" as="geometry" />
        </mxCell>
        <mxCell id="qtIyxxtRcWGqX30iMX2W-40" style="edgeStyle=orthogonalEdgeStyle;rounded=0;orthogonalLoop=1;jettySize=auto;html=1;entryX=0.329;entryY=0;entryDx=0;entryDy=0;entryPerimeter=0;" edge="1" parent="1" source="qtIyxxtRcWGqX30iMX2W-13" target="qtIyxxtRcWGqX30iMX2W-7">
          <mxGeometry relative="1" as="geometry" />
        </mxCell>
        <mxCell id="qtIyxxtRcWGqX30iMX2W-44" style="edgeStyle=orthogonalEdgeStyle;rounded=0;orthogonalLoop=1;jettySize=auto;html=1;entryX=0.102;entryY=0.768;entryDx=0;entryDy=0;entryPerimeter=0;" edge="1" parent="1" target="qtIyxxtRcWGqX30iMX2W-8">
          <mxGeometry relative="1" as="geometry">
            <mxPoint x="93" y="316" as="sourcePoint" />
            <mxPoint x="325" y="621.5999999999999" as="targetPoint" />
            <Array as="points">
              <mxPoint x="93" y="320" />
              <mxPoint x="93" y="300" />
              <mxPoint x="43" y="300" />
              <mxPoint x="43" y="627" />
            </Array>
          </mxGeometry>
        </mxCell>
        <mxCell id="qtIyxxtRcWGqX30iMX2W-45" style="edgeStyle=orthogonalEdgeStyle;rounded=0;orthogonalLoop=1;jettySize=auto;html=1;exitX=0.25;exitY=1;exitDx=0;exitDy=0;entryX=0.236;entryY=0.12;entryDx=0;entryDy=0;entryPerimeter=0;" edge="1" parent="1" source="qtIyxxtRcWGqX30iMX2W-10" target="qtIyxxtRcWGqX30iMX2W-6">
          <mxGeometry relative="1" as="geometry">
            <Array as="points">
              <mxPoint x="136" y="380" />
              <mxPoint x="80" y="380" />
              <mxPoint x="80" y="450" />
              <mxPoint x="115" y="450" />
            </Array>
          </mxGeometry>
        </mxCell>
        <mxCell id="qtIyxxtRcWGqX30iMX2W-46" style="edgeStyle=orthogonalEdgeStyle;rounded=0;orthogonalLoop=1;jettySize=auto;html=1;exitX=1;exitY=0;exitDx=0;exitDy=0;entryX=0.04;entryY=1.05;entryDx=0;entryDy=0;entryPerimeter=0;" edge="1" parent="1" source="qtIyxxtRcWGqX30iMX2W-6" target="qtIyxxtRcWGqX30iMX2W-15">
          <mxGeometry relative="1" as="geometry">
            <Array as="points">
              <mxPoint x="232" y="450" />
              <mxPoint x="333" y="450" />
            </Array>
          </mxGeometry>
        </mxCell>
        <mxCell id="qtIyxxtRcWGqX30iMX2W-52" style="edgeStyle=orthogonalEdgeStyle;rounded=0;orthogonalLoop=1;jettySize=auto;html=1;exitX=0;exitY=0.75;exitDx=0;exitDy=0;entryX=0.254;entryY=0.912;entryDx=0;entryDy=0;entryPerimeter=0;" edge="1" parent="1" source="qtIyxxtRcWGqX30iMX2W-9" target="qtIyxxtRcWGqX30iMX2W-8">
          <mxGeometry relative="1" as="geometry" />
        </mxCell>
        <mxCell id="qtIyxxtRcWGqX30iMX2W-54" style="edgeStyle=orthogonalEdgeStyle;rounded=0;orthogonalLoop=1;jettySize=auto;html=1;exitX=0.5;exitY=1;exitDx=0;exitDy=0;entryX=0.392;entryY=0.022;entryDx=0;entryDy=0;entryPerimeter=0;" edge="1" parent="1" source="qtIyxxtRcWGqX30iMX2W-4" target="qtIyxxtRcWGqX30iMX2W-10">
          <mxGeometry relative="1" as="geometry" />
        </mxCell>
        <mxCell id="qtIyxxtRcWGqX30iMX2W-55" style="edgeStyle=orthogonalEdgeStyle;rounded=0;orthogonalLoop=1;jettySize=auto;html=1;entryX=1.073;entryY=0.156;entryDx=0;entryDy=0;entryPerimeter=0;" edge="1" parent="1" source="qtIyxxtRcWGqX30iMX2W-7" target="qtIyxxtRcWGqX30iMX2W-2">
          <mxGeometry relative="1" as="geometry">
            <Array as="points">
              <mxPoint x="750" y="520" />
            </Array>
          </mxGeometry>
        </mxCell>
      </root>
    </mxGraphModel>
  </diagram>
</mxfile>
